# xmcd
#
# Track frame offsets:
#	187
#	18932
#	34245
#	49530
#	67310
#	87162
#	115902
#	132710
#	150465
#	169827
#	190160
#	207932
#
# Disc length: 3080 seconds
#
# Revision: 1
# Processed by: cddbd v1.5PL3 Copyright (c) Steve Scherf et al.
# Submitted via: CDex 1.50Beta5
#
DISCID=a50c060c
DTITLE=南こうせつ - 南こうせつ12
DYEAR=1900
DGENRE=Pop
TTITLE0=愛する人へ
TTITLE1=海になりたい
TTITLE2=荻窪二丁目
TTITLE3=君といっしょなら
TTITLE4=にぎやかな夕暮れ
TTITLE5=幼い日に
TTITLE6=夏の少女
TTITLE7=思い出にしてしまえるさ
TTITLE8=夢一夜
TTITLE9=海と君と愛の唄
TTITLE10=旅立つ想い
TTITLE11=ねがい
EXTD=
EXTT0=
EXTT1=
EXTT2=
EXTT3=
EXTT4=
EXTT5=
EXTT6=
EXTT7=
EXTT8=
EXTT9=
EXTT10=
EXTT11=
PLAYORDER=
